<svg xmlns="http://www.w3.org/2000/svg" version="1.1" viewBox="0.7401568293571472 -10.348484992980957 422.6637878417969 436.63714599609375" width="424.00" height="427.00">
<g stroke-width="2.00" fill="none" stroke-linecap="butt">
<path stroke="#2e7fa4" d="&#10;  M 249.77 318.77&#10;  L 244.85 324.41&#10;  Q 244.82 324.45 244.85 324.51&#10;  Q 244.86 324.54 244.87 324.58&#10;  Q 244.88 324.73 245.02 324.59&#10;  L 249.46 320.22"/>
<path stroke="#3283a6" d="&#10;  M 211.49 359.85&#10;  Q 211.98 359.82 212.00 359.78&#10;  A 0.80 0.79 -52.4 0 0 211.88 358.82&#10;  Q 192.47 339.51 175.41 319.04"/>
</g>
<ellipse fill="#2e81bb" cx="0.00" cy="0.00" transform="translate(212.06,53.70) rotate(-14.9)" rx="52.83" ry="52.22"/>
<path fill="#235369" d="&#10;  M 249.77 318.77&#10;  L 244.85 324.41&#10;  Q 244.82 324.45 244.85 324.51&#10;  Q 244.86 324.54 244.87 324.58&#10;  Q 244.88 324.73 245.02 324.59&#10;  L 249.46 320.22&#10;  Q 250.59 319.31 254.11 316.11&#10;  Q 257.83 312.73 269.66 303.79&#10;  Q 279.08 296.66 286.07 292.66&#10;  C 301.44 283.86 318.95 277.13 336.42 275.21&#10;  Q 345.81 274.18 356.05 275.74&#10;  C 381.84 279.67 404.88 295.44 416.59 319.55&#10;  C 430.53 348.26 422.38 384.04 398.54 404.88&#10;  C 366.17 433.16 324.99 430.29 288.13 413.19&#10;  Q 246.99 394.10 214.88 361.86&#10;  Q 213.24 360.22 211.49 359.85&#10;  Q 211.98 359.82 212.00 359.78&#10;  A 0.80 0.79 -52.4 0 0 211.88 358.82&#10;  Q 192.47 339.51 175.41 319.04&#10;  Q 161.66 301.70 151.44 281.84&#10;  Q 141.63 262.77 137.58 243.05&#10;  Q 136.61 238.29 135.90 230.27&#10;  C 133.73 205.62 140.11 181.49 153.28 159.55&#10;  Q 172.92 126.87 206.65 109.42&#10;  C 210.33 107.52 211.78 107.36 215.55 109.01&#10;  Q 223.66 112.55 231.19 117.65&#10;  Q 273.66 146.45 285.68 196.32&#10;  Q 290.18 214.97 287.41 233.67&#10;  Q 283.89 257.38 274.55 277.56&#10;  Q 266.13 295.78 253.57 312.83&#10;  Q 252.25 314.63 249.77 318.77&#10;  Z"/>
<ellipse fill="#06223b" cx="0.00" cy="0.00" transform="translate(80.07,219.96) rotate(13.3)" rx="52.08" ry="51.44"/>
<ellipse fill="#39aadf" cx="0.00" cy="0.00" transform="translate(343.80,219.94) rotate(-9.3)" rx="52.16" ry="51.40"/>
<path fill="#40b2e2" d="&#10;  M 175.41 319.04&#10;  Q 192.47 339.51 211.88 358.82&#10;  A 0.80 0.79 -52.4 0 1 212.00 359.78&#10;  Q 211.98 359.82 211.49 359.85&#10;  Q 211.26 359.94 211.06 360.02&#10;  Q 210.85 360.10 210.71 360.27&#10;  Q 207.64 363.96 204.97 366.47&#10;  Q 189.73 380.81 168.64 395.14&#10;  Q 148.47 408.85 126.28 417.48&#10;  Q 111.84 423.10 95.97 425.34&#10;  C 67.59 429.35 40.46 420.58 20.61 400.31&#10;  Q 13.33 392.89 7.35 380.74&#10;  Q 1.95 369.77 0.98 357.00&#10;  C -3.02 303.86 43.64 268.28 94.03 276.26&#10;  C 114.99 279.58 134.00 288.64 150.87 300.51&#10;  C 157.78 305.38 165.95 312.65 173.40 318.37&#10;  Q 174.44 319.17 175.41 319.04&#10;  Z"/>
<path fill="#39aadf" d="&#10;  M 249.77 318.77&#10;  L 249.46 320.22&#10;  L 245.02 324.59&#10;  Q 244.88 324.73 244.87 324.58&#10;  Q 244.86 324.54 244.85 324.51&#10;  Q 244.82 324.45 244.85 324.41&#10;  L 249.77 318.77&#10;  Z"/>
</svg>