<svg xmlns="http://www.w3.org/2000/svg" version="1.1" viewBox="0.9238522052764893 1.0010727643966675 442.82916259765625 604.975341796875" width="445.00" height="607.00">
<g stroke-width="2.00" fill="none" stroke-linecap="butt">
<path stroke="#e6a321" d="&#10;  M 265.48 59.89&#10;  Q 243.52 67.18 220.51 66.78&#10;  Q 213.34 66.65 195.93 67.02"/>
<path stroke="#dc842e" d="&#10;  M 291.12 125.47&#10;  L 289.86 137.55"/>
<path stroke="#e08f2a" d="&#10;  M 289.86 137.55&#10;  Q 272.39 134.12 260.30 132.81&#10;  C 244.74 131.12 226.38 130.51 209.93 128.94&#10;  C 194.71 127.48 181.48 125.97 164.32 126.73"/>
<path stroke="#d26239" d="&#10;  M 261.25 254.88&#10;  L 237.61 254.42&#10;  Q 237.11 254.41 236.77 254.78&#10;  Q 214.87 278.99 189.11 300.50&#10;  Q 188.73 300.82 188.26 300.67&#10;  Q 169.87 294.72 153.05 293.80&#10;  Q 107.38 291.32 64.80 285.90&#10;  Q 47.98 283.75 31.67 279.19"/>
<path stroke="#d97933" d="&#10;  M 289.86 137.55&#10;  Q 289.91 143.41 288.92 150.86&#10;  Q 284.49 183.95 267.65 211.71&#10;  Q 267.40 212.12 266.92 212.02&#10;  Q 244.10 207.05 224.40 206.89&#10;  Q 212.73 206.80 188.26 206.74&#10;  Q 160.92 206.67 133.83 202.99&#10;  Q 126.28 201.97 98.19 196.19"/>
<path stroke="#cd4840" d="&#10;  M 136.62 428.97&#10;  L 118.77 425.09&#10;  Q 118.09 424.94 118.43 424.33&#10;  L 126.89 409.69&#10;  Q 127.12 409.29 126.69 409.10&#10;  Q 113.29 403.50 97.55 402.00&#10;  Q 96.93 401.94 97.24 401.40&#10;  L 107.47 383.68&#10;  Q 107.67 383.34 107.28 383.24&#10;  C 88.97 378.64 75.10 377.38 55.76 375.24&#10;  C 46.16 374.17 37.61 372.82 29.72 369.86&#10;  Q 19.52 366.04 3.67 357.91"/>
<path stroke="#d36738" d="&#10;  M 330.48 116.51&#10;  Q 330.97 119.61 332.22 121.82&#10;  C 335.48 127.58 340.35 134.67 343.15 140.75&#10;  Q 348.45 152.22 351.70 162.97&#10;  C 366.60 212.07 363.58 265.13 354.91 316.57&#10;  C 350.32 343.76 347.00 358.64 345.72 379.55&#10;  Q 344.64 397.22 346.89 408.87&#10;  Q 352.27 436.70 375.13 456.26"/>
<path stroke="#cd4840" d="&#10;  M 289.43 498.18&#10;  Q 288.91 459.29 285.35 420.70&#10;  C 283.35 399.02 281.92 377.37 279.69 355.66"/>
<path stroke="#d36738" d="&#10;  M 351.10 565.99&#10;  L 341.42 540.71"/>
</g>
<path fill="#e9ad1c" d="&#10;  M 265.48 59.89&#10;  Q 243.52 67.18 220.51 66.78&#10;  Q 213.34 66.65 195.93 67.02&#10;  Q 203.99 42.86 205.64 17.49&#10;  Q 206.16 9.39 206.42 1.68&#10;  A 0.70 0.70 0.0 0 1 207.51 1.12&#10;  Q 242.74 24.92 265.48 59.89&#10;  Z"/>
<path fill="#e39925" d="&#10;  M 265.48 59.89&#10;  Q 284.49 90.30 291.12 125.47&#10;  L 289.86 137.55&#10;  Q 272.39 134.12 260.30 132.81&#10;  C 244.74 131.12 226.38 130.51 209.93 128.94&#10;  C 194.71 127.48 181.48 125.97 164.32 126.73&#10;  Q 184.70 99.09 195.93 67.02&#10;  Q 213.34 66.65 220.51 66.78&#10;  Q 243.52 67.18 265.48 59.89&#10;  Z"/>
<path fill="#cf553c" d="&#10;  M 330.48 116.51&#10;  Q 330.97 119.61 332.22 121.82&#10;  C 335.48 127.58 340.35 134.67 343.15 140.75&#10;  Q 348.45 152.22 351.70 162.97&#10;  C 366.60 212.07 363.58 265.13 354.91 316.57&#10;  C 350.32 343.76 347.00 358.64 345.72 379.55&#10;  Q 344.64 397.22 346.89 408.87&#10;  Q 352.27 436.70 375.13 456.26&#10;  C 362.76 473.17 346.10 488.05 326.57 496.09&#10;  Q 308.47 503.54 289.43 498.18&#10;  Q 288.91 459.29 285.35 420.70&#10;  C 283.35 399.02 281.92 377.37 279.69 355.66&#10;  C 292.86 319.63 305.51 286.30 317.58 246.90&#10;  C 320.08 238.77 322.58 228.57 324.05 221.77&#10;  Q 328.78 199.91 329.78 183.75&#10;  Q 330.99 164.33 328.52 147.56&#10;  Q 327.21 138.71 326.72 136.26&#10;  Q 323.76 121.31 316.15 104.30&#10;  Q 315.08 101.91 316.98 103.71&#10;  L 330.48 116.51&#10;  Z"/>
<path fill="#d77833" d="&#10;  M 351.10 565.99&#10;  L 341.42 540.71&#10;  Q 372.28 507.10 387.25 462.79&#10;  Q 395.81 437.47 399.80 414.87&#10;  Q 399.90 414.28 399.32 414.39&#10;  Q 398.95 414.47 398.69 414.98&#10;  C 397.29 417.73 396.15 421.46 394.49 424.79&#10;  Q 386.18 441.47 375.13 456.26&#10;  Q 352.27 436.70 346.89 408.87&#10;  Q 344.64 397.22 345.72 379.55&#10;  C 347.00 358.64 350.32 343.76 354.91 316.57&#10;  C 363.58 265.13 366.60 212.07 351.70 162.97&#10;  Q 348.45 152.22 343.15 140.75&#10;  C 340.35 134.67 335.48 127.58 332.22 121.82&#10;  Q 330.97 119.61 330.48 116.51&#10;  Q 342.00 127.34 350.36 137.13&#10;  Q 370.78 161.04 388.77 189.77&#10;  Q 394.25 198.52 398.83 207.06&#10;  Q 425.09 255.87 436.67 310.06&#10;  Q 438.27 317.54 441.38 339.01&#10;  Q 443.02 350.38 443.32 358.93&#10;  Q 444.35 388.14 442.93 405.34&#10;  Q 437.22 474.77 392.82 527.84&#10;  Q 379.81 543.41 362.28 557.77&#10;  Q 356.90 562.18 351.10 565.99&#10;  Z"/>
<path fill="#dc842f" d="&#10;  M 289.86 137.55&#10;  Q 289.91 143.41 288.92 150.86&#10;  Q 284.49 183.95 267.65 211.71&#10;  Q 267.40 212.12 266.92 212.02&#10;  Q 244.10 207.05 224.40 206.89&#10;  Q 212.73 206.80 188.26 206.74&#10;  Q 160.92 206.67 133.83 202.99&#10;  Q 126.28 201.97 98.19 196.19&#10;  Q 122.35 173.27 137.78 157.77&#10;  Q 151.72 143.77 164.32 126.73&#10;  C 181.48 125.97 194.71 127.48 209.93 128.94&#10;  C 226.38 130.51 244.74 131.12 260.30 132.81&#10;  Q 272.39 134.12 289.86 137.55&#10;  Z"/>
<path fill="#d56e36" d="&#10;  M 261.25 254.88&#10;  L 237.61 254.42&#10;  Q 237.11 254.41 236.77 254.78&#10;  Q 214.87 278.99 189.11 300.50&#10;  Q 188.73 300.82 188.26 300.67&#10;  Q 169.87 294.72 153.05 293.80&#10;  Q 107.38 291.32 64.80 285.90&#10;  Q 47.98 283.75 31.67 279.19&#10;  C 49.56 247.72 72.09 221.59 98.19 196.19&#10;  Q 126.28 201.97 133.83 202.99&#10;  Q 160.92 206.67 188.26 206.74&#10;  Q 212.73 206.80 224.40 206.89&#10;  Q 244.10 207.05 266.92 212.02&#10;  Q 267.40 212.12 267.65 211.71&#10;  Q 284.49 183.95 288.92 150.86&#10;  Q 289.91 143.41 289.86 137.55&#10;  L 291.12 125.47&#10;  C 294.74 143.48 294.82 163.65 291.22 181.92&#10;  C 286.14 207.79 275.42 232.62 261.25 254.88&#10;  Z"/>
<path fill="#cf553c" d="&#10;  M 261.25 254.88&#10;  Q 249.36 273.98 236.02 290.51&#10;  Q 215.75 315.63 192.36 340.86&#10;  Q 187.68 345.91 175.03 361.78&#10;  Q 157.55 383.73 145.02 408.75&#10;  Q 140.10 418.59 136.62 428.97&#10;  L 118.77 425.09&#10;  Q 118.09 424.94 118.43 424.33&#10;  L 126.89 409.69&#10;  Q 127.12 409.29 126.69 409.10&#10;  Q 113.29 403.50 97.55 402.00&#10;  Q 96.93 401.94 97.24 401.40&#10;  L 107.47 383.68&#10;  Q 107.67 383.34 107.28 383.24&#10;  C 88.97 378.64 75.10 377.38 55.76 375.24&#10;  C 46.16 374.17 37.61 372.82 29.72 369.86&#10;  Q 19.52 366.04 3.67 357.91&#10;  Q 10.57 316.25 31.67 279.19&#10;  Q 47.98 283.75 64.80 285.90&#10;  Q 107.38 291.32 153.05 293.80&#10;  Q 169.87 294.72 188.26 300.67&#10;  Q 188.73 300.82 189.11 300.50&#10;  Q 214.87 278.99 236.77 254.78&#10;  Q 237.11 254.41 237.61 254.42&#10;  L 261.25 254.88&#10;  Z"/>
<path fill="#ca3b43" d="&#10;  M 279.69 355.66&#10;  C 281.92 377.37 283.35 399.02 285.35 420.70&#10;  Q 288.91 459.29 289.43 498.18&#10;  C 273.28 492.14 262.82 478.94 259.07 462.24&#10;  Q 257.96 457.29 257.78 449.28&#10;  Q 257.60 440.84 258.23 436.21&#10;  C 259.31 428.24 259.71 424.16 261.08 418.15&#10;  Q 268.30 386.42 279.69 355.66&#10;  Z"/>
<path fill="#ca3b43" d="&#10;  M 136.62 428.97&#10;  C 121.36 473.66 127.02 523.80 156.13 561.61&#10;  Q 176.50 588.07 207.38 602.04&#10;  C 209.46 602.98 212.86 603.50 215.16 605.26&#10;  Q 215.57 605.58 215.05 605.64&#10;  C 211.28 606.02 207.65 605.49 199.91 605.09&#10;  Q 193.20 604.74 188.14 603.94&#10;  C 173.83 601.67 160.65 599.02 147.16 594.13&#10;  C 112.50 581.58 80.83 560.77 56.51 533.11&#10;  C 29.21 502.05 9.96 463.96 3.45 423.02&#10;  Q -1.71 390.58 3.67 357.91&#10;  Q 19.52 366.04 29.72 369.86&#10;  C 37.61 372.82 46.16 374.17 55.76 375.24&#10;  C 75.10 377.38 88.97 378.64 107.28 383.24&#10;  Q 107.67 383.34 107.47 383.68&#10;  L 97.24 401.40&#10;  Q 96.93 401.94 97.55 402.00&#10;  Q 113.29 403.50 126.69 409.10&#10;  Q 127.12 409.29 126.89 409.69&#10;  L 118.43 424.33&#10;  Q 118.09 424.94 118.77 425.09&#10;  L 136.62 428.97&#10;  Z"/>
<path fill="#cf553c" d="&#10;  M 341.42 540.71&#10;  L 351.10 565.99&#10;  Q 319.13 588.12 281.61 598.25&#10;  Q 266.15 602.42 253.75 603.72&#10;  Q 239.11 605.26 229.84 605.97&#10;  Q 228.82 606.04 229.56 605.35&#10;  Q 229.73 605.19 230.20 604.95&#10;  Q 231.74 604.17 239.51 602.15&#10;  Q 299.70 586.46 341.42 540.71&#10;  Z"/>
</svg>