<svg xmlns="http://www.w3.org/2000/svg" version="1.1" viewBox="0.2603721618652344 0.25903892517089844 501.6658935546875 533.87255859375" width="503.00" height="535.00">
<g stroke-width="2.00" fill="none" stroke-linecap="butt">
<path stroke="#7d7d7d" stroke-opacity="0.984" d="&#10;  M 303.13 399.25&#10;  L 307.07 390.59"/>
<path stroke="#808080" d="&#10;  M 307.07 390.59&#10;  Q 318.20 369.78 328.78 348.79&#10;  C 336.01 334.44 343.60 318.65 348.08 303.33&#10;  C 355.79 276.98 352.99 247.51 341.50 222.95&#10;  C 331.65 201.90 314.20 184.53 293.58 174.37&#10;  Q 250.01 152.91 205.37 169.86&#10;  Q 189.32 175.96 177.92 184.87&#10;  Q 136.05 217.60 132.89 271.18&#10;  Q 131.41 296.21 141.73 320.06&#10;  Q 149.02 336.93 159.40 354.61&#10;  Q 173.99 379.45 189.45 403.94"/>
<path stroke="#7d7d7d" stroke-opacity="0.984" d="&#10;  M 297.13 409.73&#10;  Q 257.10 409.27 217.56 417.35&#10;  Q 208.20 419.27 198.44 421.39"/>
<path stroke="#fefefe" stroke-opacity="0.984" d="&#10;  M 307.07 390.59&#10;  Q 308.55 383.04 311.62 376.02&#10;  Q 320.87 354.81 333.13 327.85&#10;  C 337.85 317.45 341.24 306.80 342.03 295.84&#10;  C 342.50 289.19 343.01 283.81 344.13 277.14&#10;  Q 345.46 269.23 345.74 266.04&#10;  Q 346.90 253.01 340.70 240.05&#10;  Q 334.68 227.51 328.65 215.35&#10;  Q 327.17 212.37 324.71 209.46&#10;  Q 320.98 205.04 317.46 199.27&#10;  Q 315.44 195.97 314.54 195.20&#10;  C 304.59 186.77 293.46 180.51 280.22 179.37&#10;  C 272.67 178.71 263.15 180.48 260.00 188.03&#10;  Q 258.19 192.36 257.90 195.07&#10;  C 256.22 210.70 255.98 222.46 248.13 234.66&#10;  C 244.81 239.82 239.95 245.46 236.37 251.39&#10;  Q 233.60 255.97 231.24 258.71&#10;  C 226.37 264.39 217.40 265.06 214.13 257.20&#10;  C 212.77 253.95 211.24 248.64 209.03 244.89&#10;  C 206.57 240.72 202.25 238.50 199.95 234.47&#10;  Q 198.59 232.08 197.71 229.57&#10;  A 0.73 0.73 0.0 0 0 196.65 229.18&#10;  C 191.56 232.17 190.30 236.12 187.98 242.33&#10;  C 186.25 246.97 180.70 266.05 185.85 269.83&#10;  Q 186.21 270.09 189.02 270.68&#10;  C 192.84 271.47 194.12 278.33 195.57 282.72&#10;  C 197.66 289.06 201.86 294.37 207.71 297.53&#10;  C 211.61 299.63 214.87 300.78 218.04 303.25&#10;  Q 222.33 306.59 226.26 309.57&#10;  Q 226.66 309.87 227.16 309.77&#10;  Q 232.16 308.80 234.29 307.52&#10;  Q 238.00 305.27 242.03 304.66&#10;  Q 244.50 304.28 248.57 305.86&#10;  Q 262.26 311.19 265.76 312.97&#10;  Q 281.43 320.98 276.84 338.54&#10;  Q 275.87 342.24 275.03 344.82&#10;  C 273.21 350.38 273.41 356.61 273.94 362.65&#10;  C 274.49 368.89 273.36 371.87 269.30 376.32&#10;  C 258.96 387.63 246.80 396.03 231.36 395.36&#10;  C 215.13 394.67 202.66 394.31 191.05 405.82"/>
<path stroke="#7f6705" d="&#10;  M 196.09 483.77&#10;  Q 196.41 484.28 197.25 484.28&#10;  Q 210.03 484.36 222.69 482.92&#10;  C 244.54 480.43 267.25 475.68 286.76 468.45&#10;  C 291.55 466.67 307.65 460.37 307.43 454.51&#10;  Q 307.37 452.93 305.85 452.01"/>
<path stroke="#7f6705" d="&#10;  M 159.64 171.66&#10;  Q 195.29 143.80 240.51 144.97&#10;  C 263.55 145.56 286.88 153.25 305.03 166.31&#10;  Q 348.03 197.24 358.73 248.56&#10;  C 363.81 272.92 361.35 298.25 352.42 321.45&#10;  Q 345.10 340.50 334.78 357.52&#10;  Q 334.04 358.74 335.17 357.86&#10;  C 349.88 346.27 363.53 332.69 377.25 318.65&#10;  Q 385.11 310.59 390.89 304.04&#10;  Q 418.61 272.59 442.57 237.36&#10;  C 454.47 219.88 464.84 201.09 473.29 181.19&#10;  C 481.75 161.25 485.24 134.54 472.10 115.77&#10;  C 461.52 100.64 437.98 103.11 422.86 107.11&#10;  C 398.27 113.61 380.65 124.32 351.63 139.56&#10;  Q 345.49 142.78 339.25 144.43&#10;  C 318.85 149.80 303.30 126.21 295.18 111.30&#10;  Q 290.28 102.33 280.99 83.80&#10;  Q 276.44 74.73 263.96 53.66&#10;  C 257.73 43.13 247.02 29.56 234.00 27.56&#10;  C 203.54 22.88 176.72 73.60 165.64 96.39&#10;  Q 149.66 129.29 137.17 171.86&#10;  Q 132.24 188.67 128.34 204.21&#10;  Q 127.89 205.98 128.92 204.47&#10;  Q 141.61 185.74 159.64 171.66"/>
<path stroke="#7f6705" d="&#10;  M 154.06 374.60&#10;  Q 154.46 374.75 154.71 374.71&#10;  A 0.26 0.26 0.0 0 0 154.87 374.30&#10;  Q 140.00 354.30 128.28 331.40&#10;  C 111.41 298.45 106.59 262.75 118.22 226.98&#10;  Q 118.37 226.50 117.87 226.43&#10;  Q 110.50 225.30 102.60 224.19&#10;  C 93.96 222.98 80.14 220.50 70.73 219.60&#10;  C 60.20 218.60 50.99 219.08 41.67 223.10&#10;  Q 34.03 226.38 30.68 229.58&#10;  C 25.51 234.52 25.42 240.32 25.24 247.99&#10;  C 24.87 264.65 30.41 277.91 39.35 290.88&#10;  Q 46.72 301.56 51.46 306.53&#10;  C 79.89 336.30 115.14 359.98 154.06 374.60"/>
<path stroke="#fde683" d="&#10;  M 271.64 112.26&#10;  Q 272.93 113.02 273.47 113.14&#10;  Q 274.45 113.35 274.14 112.40&#10;  C 272.19 106.40 270.16 100.69 267.01 94.95&#10;  Q 261.88 85.59 257.22 78.02&#10;  Q 250.58 67.25 240.55 58.04&#10;  C 237.14 54.91 231.61 50.65 226.76 50.01&#10;  Q 221.37 49.31 221.74 54.10&#10;  Q 222.31 61.42 227.05 69.24&#10;  Q 243.02 95.62 271.64 112.26"/>
<path stroke="#fde683" d="&#10;  M 418.20 211.99&#10;  Q 415.99 217.06 419.18 212.54&#10;  Q 437.91 186.00 450.54 156.81&#10;  Q 453.94 148.97 455.43 142.94&#10;  C 456.76 137.60 456.81 132.27 451.66 129.99&#10;  C 448.34 128.52 441.97 128.21 437.85 128.61&#10;  C 428.71 129.51 420.17 131.40 411.16 134.55&#10;  Q 381.81 144.82 356.32 162.14&#10;  Q 355.89 162.43 356.38 162.60&#10;  Q 356.75 162.73 357.46 162.44&#10;  Q 376.90 154.52 397.43 150.43&#10;  C 407.02 148.52 418.03 147.11 427.32 149.50&#10;  C 433.80 151.17 434.84 156.24 434.12 162.15&#10;  Q 433.43 167.83 431.31 175.31&#10;  Q 425.94 194.22 418.20 211.99"/>
<path stroke="#fefefe" stroke-opacity="0.984" d="&#10;  M 451.00 142.34&#10;  A 0.82 0.82 0.0 0 0 450.82 141.42&#10;  L 444.00 134.60&#10;  A 1.27 1.26 40.7 0 0 442.09 134.74&#10;  Q 439.75 137.87 438.54 139.76&#10;  C 436.38 143.16 433.57 145.23 430.30 146.64&#10;  A 0.72 0.72 0.0 0 0 430.06 147.80&#10;  C 432.14 150.02 434.56 152.96 437.22 154.14&#10;  C 442.87 156.63 446.61 152.82 448.64 147.78&#10;  Q 449.12 146.57 451.00 142.34"/>
<path stroke="#fde683" d="&#10;  M 183.36 351.92&#10;  C 187.70 357.77 193.46 365.43 199.24 372.33&#10;  Q 199.72 372.90 200.18 372.98&#10;  A 0.59 0.59 0.0 0 0 200.82 372.16&#10;  Q 189.06 345.34 181.25 319.04&#10;  Q 175.30 299.00 174.25 279.01&#10;  C 171.70 230.59 200.98 188.92 248.01 176.27&#10;  Q 249.94 175.75 257.23 173.92&#10;  A 0.44 0.44 0.0 0 0 257.41 173.16&#10;  Q 257.15 172.93 256.67 172.87&#10;  Q 247.87 171.69 240.53 172.32&#10;  Q 193.44 176.35 166.61 213.05&#10;  C 162.66 218.45 159.32 224.62 156.81 230.86&#10;  Q 144.02 262.53 153.34 295.29&#10;  Q 155.75 303.77 160.51 313.92&#10;  Q 169.69 333.50 183.36 351.92"/>
<path stroke="#fde683" d="&#10;  M 51.42 277.81&#10;  C 54.29 279.93 58.69 280.16 60.17 276.17&#10;  Q 61.14 273.56 60.65 269.91&#10;  C 59.84 263.83 58.62 256.42 60.29 250.82&#10;  C 63.47 240.14 74.50 238.44 84.25 237.75&#10;  Q 86.91 237.56 86.92 234.80&#10;  Q 86.92 234.31 86.56 233.96&#10;  C 81.33 229.00 72.05 227.64 65.08 228.32&#10;  C 45.82 230.22 39.26 251.27 44.16 267.35&#10;  Q 46.16 273.91 51.42 277.81"/>
</g>
<path fill="#010101" d="&#10;  M 303.13 399.25&#10;  L 307.07 390.59&#10;  Q 318.20 369.78 328.78 348.79&#10;  C 336.01 334.44 343.60 318.65 348.08 303.33&#10;  C 355.79 276.98 352.99 247.51 341.50 222.95&#10;  C 331.65 201.90 314.20 184.53 293.58 174.37&#10;  Q 250.01 152.91 205.37 169.86&#10;  Q 189.32 175.96 177.92 184.87&#10;  Q 136.05 217.60 132.89 271.18&#10;  Q 131.41 296.21 141.73 320.06&#10;  Q 149.02 336.93 159.40 354.61&#10;  Q 173.99 379.45 189.45 403.94&#10;  Q 187.42 403.43 185.73 403.19&#10;  Q 156.57 399.14 127.42 388.09&#10;  C 86.57 372.60 46.07 349.38 19.20 313.94&#10;  C 2.08 291.35 -5.05 264.32 4.60 236.88&#10;  Q 10.32 220.63 24.49 211.02&#10;  C 46.22 196.28 72.90 194.70 98.75 198.36&#10;  A 2.54 2.54 0.0 0 0 101.54 196.58&#10;  C 102.54 193.31 103.44 190.62 104.08 188.05&#10;  Q 114.98 144.56 131.90 103.90&#10;  C 141.45 80.98 153.92 57.53 168.42 38.17&#10;  Q 180.15 22.51 195.37 11.38&#10;  C 203.96 5.09 214.69 0.18 225.60 0.26&#10;  Q 237.49 0.36 247.00 5.44&#10;  C 261.34 13.10 272.63 25.29 282.03 38.52&#10;  C 288.42 47.51 295.49 58.32 301.53 68.69&#10;  Q 311.06 85.02 318.05 95.68&#10;  Q 322.37 102.26 327.20 107.40&#10;  C 335.61 116.35 346.12 114.89 356.00 110.01&#10;  C 371.89 102.15 385.51 95.63 401.38 91.38&#10;  C 418.24 86.86 435.72 85.09 452.51 88.10&#10;  C 466.71 90.65 480.45 96.37 489.92 107.63&#10;  Q 502.20 122.25 501.92 142.55&#10;  C 501.65 162.04 495.21 181.50 486.97 200.24&#10;  C 469.69 239.52 445.98 276.57 419.47 310.23&#10;  Q 409.76 322.55 397.07 336.32&#10;  Q 372.30 363.22 341.65 381.90&#10;  C 331.13 388.31 319.82 393.81 307.93 397.34&#10;  Q 305.49 398.07 303.13 399.25&#10;  Z&#10;  M 159.64 171.66&#10;  Q 195.29 143.80 240.51 144.97&#10;  C 263.55 145.56 286.88 153.25 305.03 166.31&#10;  Q 348.03 197.24 358.73 248.56&#10;  C 363.81 272.92 361.35 298.25 352.42 321.45&#10;  Q 345.10 340.50 334.78 357.52&#10;  Q 334.04 358.74 335.17 357.86&#10;  C 349.88 346.27 363.53 332.69 377.25 318.65&#10;  Q 385.11 310.59 390.89 304.04&#10;  Q 418.61 272.59 442.57 237.36&#10;  C 454.47 219.88 464.84 201.09 473.29 181.19&#10;  C 481.75 161.25 485.24 134.54 472.10 115.77&#10;  C 461.52 100.64 437.98 103.11 422.86 107.11&#10;  C 398.27 113.61 380.65 124.32 351.63 139.56&#10;  Q 345.49 142.78 339.25 144.43&#10;  C 318.85 149.80 303.30 126.21 295.18 111.30&#10;  Q 290.28 102.33 280.99 83.80&#10;  Q 276.44 74.73 263.96 53.66&#10;  C 257.73 43.13 247.02 29.56 234.00 27.56&#10;  C 203.54 22.88 176.72 73.60 165.64 96.39&#10;  Q 149.66 129.29 137.17 171.86&#10;  Q 132.24 188.67 128.34 204.21&#10;  Q 127.89 205.98 128.92 204.47&#10;  Q 141.61 185.74 159.64 171.66&#10;  Z&#10;  M 154.06 374.60&#10;  Q 154.46 374.75 154.71 374.71&#10;  A 0.26 0.26 0.0 0 0 154.87 374.30&#10;  Q 140.00 354.30 128.28 331.40&#10;  C 111.41 298.45 106.59 262.75 118.22 226.98&#10;  Q 118.37 226.50 117.87 226.43&#10;  Q 110.50 225.30 102.60 224.19&#10;  C 93.96 222.98 80.14 220.50 70.73 219.60&#10;  C 60.20 218.60 50.99 219.08 41.67 223.10&#10;  Q 34.03 226.38 30.68 229.58&#10;  C 25.51 234.52 25.42 240.32 25.24 247.99&#10;  C 24.87 264.65 30.41 277.91 39.35 290.88&#10;  Q 46.72 301.56 51.46 306.53&#10;  C 79.89 336.30 115.14 359.98 154.06 374.60&#10;  Z"/>
<path fill="#fccd08" d="&#10;  M 159.64 171.66&#10;  Q 141.61 185.74 128.92 204.47&#10;  Q 127.89 205.98 128.34 204.21&#10;  Q 132.24 188.67 137.17 171.86&#10;  Q 149.66 129.29 165.64 96.39&#10;  C 176.72 73.60 203.54 22.88 234.00 27.56&#10;  C 247.02 29.56 257.73 43.13 263.96 53.66&#10;  Q 276.44 74.73 280.99 83.80&#10;  Q 290.28 102.33 295.18 111.30&#10;  C 303.30 126.21 318.85 149.80 339.25 144.43&#10;  Q 345.49 142.78 351.63 139.56&#10;  C 380.65 124.32 398.27 113.61 422.86 107.11&#10;  C 437.98 103.11 461.52 100.64 472.10 115.77&#10;  C 485.24 134.54 481.75 161.25 473.29 181.19&#10;  C 464.84 201.09 454.47 219.88 442.57 237.36&#10;  Q 418.61 272.59 390.89 304.04&#10;  Q 385.11 310.59 377.25 318.65&#10;  C 363.53 332.69 349.88 346.27 335.17 357.86&#10;  Q 334.04 358.74 334.78 357.52&#10;  Q 345.10 340.50 352.42 321.45&#10;  C 361.35 298.25 363.81 272.92 358.73 248.56&#10;  Q 348.03 197.24 305.03 166.31&#10;  C 286.88 153.25 263.55 145.56 240.51 144.97&#10;  Q 195.29 143.80 159.64 171.66&#10;  Z&#10;  M 271.64 112.26&#10;  Q 272.93 113.02 273.47 113.14&#10;  Q 274.45 113.35 274.14 112.40&#10;  C 272.19 106.40 270.16 100.69 267.01 94.95&#10;  Q 261.88 85.59 257.22 78.02&#10;  Q 250.58 67.25 240.55 58.04&#10;  C 237.14 54.91 231.61 50.65 226.76 50.01&#10;  Q 221.37 49.31 221.74 54.10&#10;  Q 222.31 61.42 227.05 69.24&#10;  Q 243.02 95.62 271.64 112.26&#10;  Z&#10;  M 418.20 211.99&#10;  Q 415.99 217.06 419.18 212.54&#10;  Q 437.91 186.00 450.54 156.81&#10;  Q 453.94 148.97 455.43 142.94&#10;  C 456.76 137.60 456.81 132.27 451.66 129.99&#10;  C 448.34 128.52 441.97 128.21 437.85 128.61&#10;  C 428.71 129.51 420.17 131.40 411.16 134.55&#10;  Q 381.81 144.82 356.32 162.14&#10;  Q 355.89 162.43 356.38 162.60&#10;  Q 356.75 162.73 357.46 162.44&#10;  Q 376.90 154.52 397.43 150.43&#10;  C 407.02 148.52 418.03 147.11 427.32 149.50&#10;  C 433.80 151.17 434.84 156.24 434.12 162.15&#10;  Q 433.43 167.83 431.31 175.31&#10;  Q 425.94 194.22 418.20 211.99&#10;  Z"/>
<path fill="#fefefe" d="&#10;  M 271.64 112.26&#10;  Q 243.02 95.62 227.05 69.24&#10;  Q 222.31 61.42 221.74 54.10&#10;  Q 221.37 49.31 226.76 50.01&#10;  C 231.61 50.65 237.14 54.91 240.55 58.04&#10;  Q 250.58 67.25 257.22 78.02&#10;  Q 261.88 85.59 267.01 94.95&#10;  C 270.16 100.69 272.19 106.40 274.14 112.40&#10;  Q 274.45 113.35 273.47 113.14&#10;  Q 272.93 113.02 271.64 112.26&#10;  Z"/>
<path fill="#fefefe" d="&#10;  M 418.20 211.99&#10;  Q 425.94 194.22 431.31 175.31&#10;  Q 433.43 167.83 434.12 162.15&#10;  C 434.84 156.24 433.80 151.17 427.32 149.50&#10;  C 418.03 147.11 407.02 148.52 397.43 150.43&#10;  Q 376.90 154.52 357.46 162.44&#10;  Q 356.75 162.73 356.38 162.60&#10;  Q 355.89 162.43 356.32 162.14&#10;  Q 381.81 144.82 411.16 134.55&#10;  C 420.17 131.40 428.71 129.51 437.85 128.61&#10;  C 441.97 128.21 448.34 128.52 451.66 129.99&#10;  C 456.81 132.27 456.76 137.60 455.43 142.94&#10;  Q 453.94 148.97 450.54 156.81&#10;  Q 437.91 186.00 419.18 212.54&#10;  Q 415.99 217.06 418.20 211.99&#10;  Z&#10;  M 451.00 142.34&#10;  A 0.82 0.82 0.0 0 0 450.82 141.42&#10;  L 444.00 134.60&#10;  A 1.27 1.26 40.7 0 0 442.09 134.74&#10;  Q 439.75 137.87 438.54 139.76&#10;  C 436.38 143.16 433.57 145.23 430.30 146.64&#10;  A 0.72 0.72 0.0 0 0 430.06 147.80&#10;  C 432.14 150.02 434.56 152.96 437.22 154.14&#10;  C 442.87 156.63 446.61 152.82 448.64 147.78&#10;  Q 449.12 146.57 451.00 142.34&#10;  Z"/>
<path fill="#fefefe" fill-opacity="0.969" d="&#10;  M 451.00 142.34&#10;  Q 449.12 146.57 448.64 147.78&#10;  C 446.61 152.82 442.87 156.63 437.22 154.14&#10;  C 434.56 152.96 432.14 150.02 430.06 147.80&#10;  A 0.72 0.72 0.0 0 1 430.30 146.64&#10;  C 433.57 145.23 436.38 143.16 438.54 139.76&#10;  Q 439.75 137.87 442.09 134.74&#10;  A 1.27 1.26 40.7 0 1 444.00 134.60&#10;  L 450.82 141.42&#10;  A 0.82 0.82 0.0 0 1 451.00 142.34&#10;  Z"/>
<path fill="#fefefe" d="&#10;  M 307.07 390.59&#10;  Q 308.55 383.04 311.62 376.02&#10;  Q 320.87 354.81 333.13 327.85&#10;  C 337.85 317.45 341.24 306.80 342.03 295.84&#10;  C 342.50 289.19 343.01 283.81 344.13 277.14&#10;  Q 345.46 269.23 345.74 266.04&#10;  Q 346.90 253.01 340.70 240.05&#10;  Q 334.68 227.51 328.65 215.35&#10;  Q 327.17 212.37 324.71 209.46&#10;  Q 320.98 205.04 317.46 199.27&#10;  Q 315.44 195.97 314.54 195.20&#10;  C 304.59 186.77 293.46 180.51 280.22 179.37&#10;  C 272.67 178.71 263.15 180.48 260.00 188.03&#10;  Q 258.19 192.36 257.90 195.07&#10;  C 256.22 210.70 255.98 222.46 248.13 234.66&#10;  C 244.81 239.82 239.95 245.46 236.37 251.39&#10;  Q 233.60 255.97 231.24 258.71&#10;  C 226.37 264.39 217.40 265.06 214.13 257.20&#10;  C 212.77 253.95 211.24 248.64 209.03 244.89&#10;  C 206.57 240.72 202.25 238.50 199.95 234.47&#10;  Q 198.59 232.08 197.71 229.57&#10;  A 0.73 0.73 0.0 0 0 196.65 229.18&#10;  C 191.56 232.17 190.30 236.12 187.98 242.33&#10;  C 186.25 246.97 180.70 266.05 185.85 269.83&#10;  Q 186.21 270.09 189.02 270.68&#10;  C 192.84 271.47 194.12 278.33 195.57 282.72&#10;  C 197.66 289.06 201.86 294.37 207.71 297.53&#10;  C 211.61 299.63 214.87 300.78 218.04 303.25&#10;  Q 222.33 306.59 226.26 309.57&#10;  Q 226.66 309.87 227.16 309.77&#10;  Q 232.16 308.80 234.29 307.52&#10;  Q 238.00 305.27 242.03 304.66&#10;  Q 244.50 304.28 248.57 305.86&#10;  Q 262.26 311.19 265.76 312.97&#10;  Q 281.43 320.98 276.84 338.54&#10;  Q 275.87 342.24 275.03 344.82&#10;  C 273.21 350.38 273.41 356.61 273.94 362.65&#10;  C 274.49 368.89 273.36 371.87 269.30 376.32&#10;  C 258.96 387.63 246.80 396.03 231.36 395.36&#10;  C 215.13 394.67 202.66 394.31 191.05 405.82&#10;  Q 189.66 404.85 189.45 403.94&#10;  Q 173.99 379.45 159.40 354.61&#10;  Q 149.02 336.93 141.73 320.06&#10;  Q 131.41 296.21 132.89 271.18&#10;  Q 136.05 217.60 177.92 184.87&#10;  Q 189.32 175.96 205.37 169.86&#10;  Q 250.01 152.91 293.58 174.37&#10;  C 314.20 184.53 331.65 201.90 341.50 222.95&#10;  C 352.99 247.51 355.79 276.98 348.08 303.33&#10;  C 343.60 318.65 336.01 334.44 328.78 348.79&#10;  Q 318.20 369.78 307.07 390.59&#10;  Z&#10;  M 183.36 351.92&#10;  C 187.70 357.77 193.46 365.43 199.24 372.33&#10;  Q 199.72 372.90 200.18 372.98&#10;  A 0.59 0.59 0.0 0 0 200.82 372.16&#10;  Q 189.06 345.34 181.25 319.04&#10;  Q 175.30 299.00 174.25 279.01&#10;  C 171.70 230.59 200.98 188.92 248.01 176.27&#10;  Q 249.94 175.75 257.23 173.92&#10;  A 0.44 0.44 0.0 0 0 257.41 173.16&#10;  Q 257.15 172.93 256.67 172.87&#10;  Q 247.87 171.69 240.53 172.32&#10;  Q 193.44 176.35 166.61 213.05&#10;  C 162.66 218.45 159.32 224.62 156.81 230.86&#10;  Q 144.02 262.53 153.34 295.29&#10;  Q 155.75 303.77 160.51 313.92&#10;  Q 169.69 333.50 183.36 351.92&#10;  Z"/>
<path fill="#fccd08" d="&#10;  M 183.36 351.92&#10;  Q 169.69 333.50 160.51 313.92&#10;  Q 155.75 303.77 153.34 295.29&#10;  Q 144.02 262.53 156.81 230.86&#10;  C 159.32 224.62 162.66 218.45 166.61 213.05&#10;  Q 193.44 176.35 240.53 172.32&#10;  Q 247.87 171.69 256.67 172.87&#10;  Q 257.15 172.93 257.41 173.16&#10;  A 0.44 0.44 0.0 0 1 257.23 173.92&#10;  Q 249.94 175.75 248.01 176.27&#10;  C 200.98 188.92 171.70 230.59 174.25 279.01&#10;  Q 175.30 299.00 181.25 319.04&#10;  Q 189.06 345.34 200.82 372.16&#10;  A 0.59 0.59 0.0 0 1 200.18 372.98&#10;  Q 199.72 372.90 199.24 372.33&#10;  C 193.46 365.43 187.70 357.77 183.36 351.92&#10;  Z"/>
<path fill="#fefefe" fill-opacity="0.969" d="&#10;  M 307.07 390.59&#10;  L 303.13 399.25&#10;  L 294.82 407.24&#10;  Q 294.47 407.57 294.79 407.95&#10;  Q 295.56 408.85 297.13 409.73&#10;  Q 257.10 409.27 217.56 417.35&#10;  Q 208.20 419.27 198.44 421.39&#10;  Q 199.88 419.23 199.06 417.64&#10;  C 196.83 413.27 195.10 409.24 191.05 405.82&#10;  C 202.66 394.31 215.13 394.67 231.36 395.36&#10;  C 246.80 396.03 258.96 387.63 269.30 376.32&#10;  C 273.36 371.87 274.49 368.89 273.94 362.65&#10;  C 273.41 356.61 273.21 350.38 275.03 344.82&#10;  Q 275.87 342.24 276.84 338.54&#10;  Q 281.43 320.98 265.76 312.97&#10;  Q 262.26 311.19 248.57 305.86&#10;  Q 244.50 304.28 242.03 304.66&#10;  Q 238.00 305.27 234.29 307.52&#10;  Q 232.16 308.80 227.16 309.77&#10;  Q 226.66 309.87 226.26 309.57&#10;  Q 222.33 306.59 218.04 303.25&#10;  C 214.87 300.78 211.61 299.63 207.71 297.53&#10;  C 201.86 294.37 197.66 289.06 195.57 282.72&#10;  C 194.12 278.33 192.84 271.47 189.02 270.68&#10;  Q 186.21 270.09 185.85 269.83&#10;  C 180.70 266.05 186.25 246.97 187.98 242.33&#10;  C 190.30 236.12 191.56 232.17 196.65 229.18&#10;  A 0.73 0.73 0.0 0 1 197.71 229.57&#10;  Q 198.59 232.08 199.95 234.47&#10;  C 202.25 238.50 206.57 240.72 209.03 244.89&#10;  C 211.24 248.64 212.77 253.95 214.13 257.20&#10;  C 217.40 265.06 226.37 264.39 231.24 258.71&#10;  Q 233.60 255.97 236.37 251.39&#10;  C 239.95 245.46 244.81 239.82 248.13 234.66&#10;  C 255.98 222.46 256.22 210.70 257.90 195.07&#10;  Q 258.19 192.36 260.00 188.03&#10;  C 263.15 180.48 272.67 178.71 280.22 179.37&#10;  C 293.46 180.51 304.59 186.77 314.54 195.20&#10;  Q 315.44 195.97 317.46 199.27&#10;  Q 320.98 205.04 324.71 209.46&#10;  Q 327.17 212.37 328.65 215.35&#10;  Q 334.68 227.51 340.70 240.05&#10;  Q 346.90 253.01 345.74 266.04&#10;  Q 345.46 269.23 344.13 277.14&#10;  C 343.01 283.81 342.50 289.19 342.03 295.84&#10;  C 341.24 306.80 337.85 317.45 333.13 327.85&#10;  Q 320.87 354.81 311.62 376.02&#10;  Q 308.55 383.04 307.07 390.59&#10;  Z"/>
<path fill="#fccd08" d="&#10;  M 154.06 374.60&#10;  C 115.14 359.98 79.89 336.30 51.46 306.53&#10;  Q 46.72 301.56 39.35 290.88&#10;  C 30.41 277.91 24.87 264.65 25.24 247.99&#10;  C 25.42 240.32 25.51 234.52 30.68 229.58&#10;  Q 34.03 226.38 41.67 223.10&#10;  C 50.99 219.08 60.20 218.60 70.73 219.60&#10;  C 80.14 220.50 93.96 222.98 102.60 224.19&#10;  Q 110.50 225.30 117.87 226.43&#10;  Q 118.37 226.50 118.22 226.98&#10;  C 106.59 262.75 111.41 298.45 128.28 331.40&#10;  Q 140.00 354.30 154.87 374.30&#10;  A 0.26 0.26 0.0 0 1 154.71 374.71&#10;  Q 154.46 374.75 154.06 374.60&#10;  Z&#10;  M 51.42 277.81&#10;  C 54.29 279.93 58.69 280.16 60.17 276.17&#10;  Q 61.14 273.56 60.65 269.91&#10;  C 59.84 263.83 58.62 256.42 60.29 250.82&#10;  C 63.47 240.14 74.50 238.44 84.25 237.75&#10;  Q 86.91 237.56 86.92 234.80&#10;  Q 86.92 234.31 86.56 233.96&#10;  C 81.33 229.00 72.05 227.64 65.08 228.32&#10;  C 45.82 230.22 39.26 251.27 44.16 267.35&#10;  Q 46.16 273.91 51.42 277.81&#10;  Z"/>
<path fill="#fefefe" d="&#10;  M 60.17 276.17&#10;  C 58.69 280.16 54.29 279.93 51.42 277.81&#10;  Q 46.16 273.91 44.16 267.35&#10;  C 39.26 251.27 45.82 230.22 65.08 228.32&#10;  C 72.05 227.64 81.33 229.00 86.56 233.96&#10;  Q 86.92 234.31 86.92 234.80&#10;  Q 86.91 237.56 84.25 237.75&#10;  C 74.50 238.44 63.47 240.14 60.29 250.82&#10;  C 58.62 256.42 59.84 263.83 60.65 269.91&#10;  Q 61.14 273.56 60.17 276.17&#10;  Z"/>
<path fill="#010101" d="&#10;  M 297.13 409.73&#10;  Q 314.02 410.76 329.79 415.26&#10;  Q 334.88 416.71 338.15 419.02&#10;  C 343.77 423.01 338.77 427.98 334.60 430.08&#10;  Q 329.48 432.67 323.97 434.44&#10;  Q 312.34 438.18 303.88 439.76&#10;  Q 302.43 440.03 303.64 440.87&#10;  C 306.73 443.01 311.96 444.89 315.17 447.40&#10;  C 326.49 456.27 328.57 468.26 321.54 480.71&#10;  C 315.21 491.94 299.87 496.79 288.18 499.43&#10;  A 1.49 1.48 -3.4 0 0 287.04 500.70&#10;  C 285.99 509.88 284.52 519.79 276.60 525.06&#10;  C 265.17 532.66 252.04 534.71 238.50 534.00&#10;  C 228.81 533.48 217.48 531.06 210.48 524.78&#10;  C 205.09 519.94 201.54 513.63 198.07 507.02&#10;  C 196.91 504.81 192.35 504.25 189.29 503.49&#10;  C 183.96 502.16 176.51 499.14 173.23 494.46&#10;  Q 168.93 488.32 167.52 479.58&#10;  Q 167.10 477.02 167.45 475.55&#10;  Q 167.88 473.74 168.40 475.53&#10;  C 170.64 483.10 186.14 484.14 193.77 484.60&#10;  Q 195.52 484.70 196.09 483.77&#10;  Q 196.41 484.28 197.25 484.28&#10;  Q 210.03 484.36 222.69 482.92&#10;  C 244.54 480.43 267.25 475.68 286.76 468.45&#10;  C 291.55 466.67 307.65 460.37 307.43 454.51&#10;  Q 307.37 452.93 305.85 452.01&#10;  Q 300.88 447.72 292.96 446.30&#10;  C 272.74 442.67 251.50 444.10 231.61 447.60&#10;  Q 212.11 451.03 195.79 454.81&#10;  Q 186.21 457.03 177.01 453.84&#10;  C 172.55 452.30 167.75 449.87 166.57 445.24&#10;  C 165.52 441.09 169.92 435.74 173.02 433.51&#10;  C 177.81 430.05 182.72 427.49 189.01 425.14&#10;  Q 193.90 423.32 198.44 421.39&#10;  Q 208.20 419.27 217.56 417.35&#10;  Q 257.10 409.27 297.13 409.73&#10;  Z"/>
<path fill="#fccd08" d="&#10;  M 305.85 452.01&#10;  Q 307.37 452.93 307.43 454.51&#10;  C 307.65 460.37 291.55 466.67 286.76 468.45&#10;  C 267.25 475.68 244.54 480.43 222.69 482.92&#10;  Q 210.03 484.36 197.25 484.28&#10;  Q 196.41 484.28 196.09 483.77&#10;  Q 197.02 478.49 200.63 475.60&#10;  C 210.14 467.98 222.09 463.20 235.05 459.22&#10;  Q 269.11 448.78 302.23 452.58&#10;  Q 304.72 452.86 305.85 452.01&#10;  Z"/>
</svg>