<svg xmlns="http://www.w3.org/2000/svg" version="1.1" viewBox="0.7672738432884216 0.7735402584075928 380.5328369140625 427.89404296875" width="382.00" height="430.00">
<g stroke-width="2.00" fill="none" stroke-linecap="butt">
<path stroke="#5d9272" d="&#10;  M 242.28 162.30&#10;  Q 253.69 130.15 244.61 98.90&#10;  Q 232.79 58.23 196.34 33.16&#10;  Q 185.56 25.75 173.82 20.23&#10;  A 1.47 1.47 0.0 0 0 172.06 20.61&#10;  Q 167.39 26.09 161.01 34.00&#10;  C 138.01 62.54 126.81 100.62 136.26 136.79&#10;  C 142.93 162.28 157.14 184.22 178.24 199.92&#10;  Q 181.47 202.33 187.72 206.09&#10;  Q 192.53 208.98 197.40 212.00"/>
<path stroke="#5d9272" d="&#10;  M 212.28 309.00&#10;  C 236.67 310.87 261.78 307.37 284.01 297.05&#10;  Q 300.84 289.23 316.93 275.44&#10;  C 344.10 252.16 359.39 216.45 362.97 180.76&#10;  Q 364.13 169.10 364.34 158.22&#10;  A 0.97 0.97 0.0 0 0 363.47 157.24&#10;  C 317.15 152.46 270.60 169.18 238.86 203.62&#10;  Q 218.92 225.25 209.80 254.04"/>
<path stroke="#5d9272" d="&#10;  M 177.01 292.09&#10;  Q 177.52 290.59 177.36 289.83&#10;  Q 169.93 254.96 149.41 228.37&#10;  Q 128.24 200.94 93.66 188.37&#10;  Q 85.87 185.54 74.26 183.60&#10;  Q 46.78 179.00 19.57 185.19&#10;  Q 18.97 185.33 19.05 185.94&#10;  C 23.29 218.26 36.36 250.30 60.31 272.50&#10;  C 85.61 295.96 120.54 305.96 154.46 300.45&#10;  Q 155.54 300.27 159.48 299.32&#10;  Q 161.99 298.71 164.57 298.44"/>
</g>
<path fill="#2d6845" d="&#10;  M 242.28 162.30&#10;  Q 253.69 130.15 244.61 98.90&#10;  Q 232.79 58.23 196.34 33.16&#10;  Q 185.56 25.75 173.82 20.23&#10;  A 1.47 1.47 0.0 0 0 172.06 20.61&#10;  Q 167.39 26.09 161.01 34.00&#10;  C 138.01 62.54 126.81 100.62 136.26 136.79&#10;  C 142.93 162.28 157.14 184.22 178.24 199.92&#10;  Q 181.47 202.33 187.72 206.09&#10;  Q 192.53 208.98 197.40 212.00&#10;  Q 177.91 204.48 164.01 194.01&#10;  Q 149.92 183.40 137.88 166.52&#10;  C 121.85 144.05 115.84 115.10 119.46 88.26&#10;  C 122.71 64.20 133.43 42.32 147.77 23.51&#10;  Q 155.18 13.79 166.39 2.35&#10;  Q 168.81 -0.12 172.22 1.28&#10;  Q 200.16 12.74 221.26 34.14&#10;  C 236.71 49.81 247.08 68.87 252.68 89.81&#10;  Q 260.90 120.56 251.62 150.36&#10;  Q 250.70 153.32 249.21 155.93&#10;  Q 248.20 157.69 242.28 162.30&#10;  Z"/>
<path fill="#8dbb9e" d="&#10;  M 242.28 162.30&#10;  Q 240.49 163.76 238.83 165.33&#10;  Q 223.59 179.67 212.26 197.25&#10;  Q 207.46 204.70 203.03 212.35&#10;  Q 202.77 212.79 202.28 212.87&#10;  Q 199.72 213.32 197.40 212.00&#10;  Q 192.53 208.98 187.72 206.09&#10;  Q 181.47 202.33 178.24 199.92&#10;  C 157.14 184.22 142.93 162.28 136.26 136.79&#10;  C 126.81 100.62 138.01 62.54 161.01 34.00&#10;  Q 167.39 26.09 172.06 20.61&#10;  A 1.47 1.47 0.0 0 1 173.82 20.23&#10;  Q 185.56 25.75 196.34 33.16&#10;  Q 232.79 58.23 244.61 98.90&#10;  Q 253.69 130.15 242.28 162.30&#10;  Z"/>
<path fill="#2d6845" d="&#10;  M 212.28 309.00&#10;  C 236.67 310.87 261.78 307.37 284.01 297.05&#10;  Q 300.84 289.23 316.93 275.44&#10;  C 344.10 252.16 359.39 216.45 362.97 180.76&#10;  Q 364.13 169.10 364.34 158.22&#10;  A 0.97 0.97 0.0 0 0 363.47 157.24&#10;  C 317.15 152.46 270.60 169.18 238.86 203.62&#10;  Q 218.92 225.25 209.80 254.04&#10;  C 220.05 184.87 279.83 138.85 348.29 139.30&#10;  Q 364.42 139.41 379.54 141.69&#10;  A 1.42 1.42 0.0 0 1 380.74 142.99&#10;  C 383.52 183.86 376.21 224.55 353.01 258.54&#10;  Q 346.57 267.98 340.65 274.23&#10;  Q 315.83 300.44 282.32 309.59&#10;  Q 247.48 319.10 212.98 310.51&#10;  Q 211.86 310.23 212.28 309.00&#10;  Z"/>
<path fill="#8dbb9e" d="&#10;  M 212.28 309.00&#10;  Q 206.55 281.54 209.80 254.04&#10;  Q 218.92 225.25 238.86 203.62&#10;  C 270.60 169.18 317.15 152.46 363.47 157.24&#10;  A 0.97 0.97 0.0 0 1 364.34 158.22&#10;  Q 364.13 169.10 362.97 180.76&#10;  C 359.39 216.45 344.10 252.16 316.93 275.44&#10;  Q 300.84 289.23 284.01 297.05&#10;  C 261.78 307.37 236.67 310.87 212.28 309.00&#10;  Z"/>
<path fill="#2d6845" d="&#10;  M 177.01 292.09&#10;  Q 177.52 290.59 177.36 289.83&#10;  Q 169.93 254.96 149.41 228.37&#10;  Q 128.24 200.94 93.66 188.37&#10;  Q 85.87 185.54 74.26 183.60&#10;  Q 46.78 179.00 19.57 185.19&#10;  Q 18.97 185.33 19.05 185.94&#10;  C 23.29 218.26 36.36 250.30 60.31 272.50&#10;  C 85.61 295.96 120.54 305.96 154.46 300.45&#10;  Q 155.54 300.27 159.48 299.32&#10;  Q 161.99 298.71 164.57 298.44&#10;  Q 161.24 300.00 157.78 301.03&#10;  Q 144.16 305.13 130.50 306.45&#10;  Q 119.91 307.47 110.52 306.72&#10;  C 94.78 305.47 77.19 300.30 63.35 292.03&#10;  Q 41.92 279.22 27.62 257.81&#10;  C 11.18 233.19 2.67 202.46 0.77 173.31&#10;  A 1.20 1.20 0.0 0 1 1.59 172.09&#10;  Q 9.59 169.49 17.54 167.92&#10;  Q 56.70 160.19 90.47 169.21&#10;  Q 108.98 174.15 128.33 185.71&#10;  C 138.87 192.01 147.70 200.54 155.98 209.24&#10;  Q 161.55 215.08 166.37 222.00&#10;  Q 186.06 250.27 193.56 284.75&#10;  C 200.91 318.52 201.08 352.61 196.87 387.29&#10;  Q 196.70 388.67 198.09 388.67&#10;  Q 232.27 388.58 270.41 391.86&#10;  C 277.13 392.44 330.39 397.91 328.61 409.32&#10;  C 326.88 420.38 278.33 424.96 268.34 425.88&#10;  C 257.25 426.91 240.19 427.95 224.51 428.31&#10;  Q 197.26 428.94 165.02 428.46&#10;  Q 154.96 428.30 127.56 426.66&#10;  C 108.03 425.49 89.70 423.55 71.63 418.99&#10;  C 66.21 417.62 59.78 415.66 55.70 412.00&#10;  C 51.75 408.45 56.07 404.63 59.32 403.08&#10;  Q 64.31 400.69 68.96 399.46&#10;  Q 82.12 395.99 93.71 394.44&#10;  Q 141.56 388.06 190.71 388.80&#10;  A 1.69 1.68 -3.1 0 0 192.41 386.91&#10;  Q 186.98 343.15 184.88 327.99&#10;  Q 182.89 313.58 179.52 297.18&#10;  Q 179.10 295.12 178.12 292.85&#10;  Q 177.54 291.50 177.01 292.09&#10;  Z"/>
<path fill="#8dbb9e" d="&#10;  M 177.01 292.09&#10;  Q 171.27 296.09 164.57 298.44&#10;  Q 161.99 298.71 159.48 299.32&#10;  Q 155.54 300.27 154.46 300.45&#10;  C 120.54 305.96 85.61 295.96 60.31 272.50&#10;  C 36.36 250.30 23.29 218.26 19.05 185.94&#10;  Q 18.97 185.33 19.57 185.19&#10;  Q 46.78 179.00 74.26 183.60&#10;  Q 85.87 185.54 93.66 188.37&#10;  Q 128.24 200.94 149.41 228.37&#10;  Q 169.93 254.96 177.36 289.83&#10;  Q 177.52 290.59 177.01 292.09&#10;  Z"/>
</svg>